# xmcd
#
# Track frame offsets: 
#        150
#        17270
#        38172
#        52250
#        67524
#        91210
#        107009
#        121668
#        132436
#        152525
#        164145
#        180985
#        199691
#        218467
#        239851
#        252046
#        264704
#        278030
#        290006
#        303442
#        316414
#
# Disc length: 4446 seconds
#
# Revision: 0
# Processed by: cddbd v1.5.2PL0 Copyright (c) Steve Scherf et al.
# Submitted via: ExactAudioCopy v0.95a4
#
DISCID=23115c15
DTITLE=Various Artist - Cuntry pro zamilovane
DYEAR=2010
DGENRE=Country
TTITLE0=John Denver/A Country Girl In Paris
TTITLE1=Cindy Walker/From A Distance
TTITLE2=Kenny Rogers/You Light Up My Life
TTITLE3=Don Williams/Till The Rivers All Run Dry
TTITLE4=Rita Coolidge/For The Good Times
TTITLE5=Keith Murrell/Amazed
TTITLE6=Todd McCain/He Stopped Loving Her Tuday 
TTITLE7=Billie Jo Spears/Misty Blue
TTITLE8=Janie Fricke/Tears In Heaven
TTITLE9=Caroll Jones/Don't It Make My Brown Eyes Blue
TTITLE10=Merle Haggard/Today I Started Loving You Again
TTITLE11=Jane Weston/When You Say Nithing At All
TTITLE12=Marty Raybon/Love Can Build A Bridge
TTITLE13=Marty Raybon/Butterfly Kisses
TTITLE14=Gen Campbell/Since I Fell For You
TTITLE15=Floyd McEvans/Some Broken Hearts Never Mend
TTITLE16=Mickey Gilley/Room Full Of Roses
TTITLE17=Laura Lee/Stand By Your Man
TTITLE18=Kenny Rogers/I Will Always Love You
TTITLE19=Jimmy Lawton/You're My Best Friend
TTITLE20=Don Williams/I Believe In You
EXTD=
EXTT0=
EXTT1=
EXTT2=
EXTT3=
EXTT4=
EXTT5=
EXTT6=
EXTT7=
EXTT8=
EXTT9=
EXTT10=
EXTT11=
EXTT12=
EXTT13=
EXTT14=
EXTT15=
EXTT16=
EXTT17=
EXTT18=
EXTT19=
EXTT20=
PLAYORDER=
